<svg width="358" height="191" viewBox="0 0 358 191" fill="none" xmlns="http://www.w3.org/2000/svg">
<path d="M109.875 89H70.6875V84.5625C72.1042 84.5208 73.9167 84.375 76.125 84.125C78.375 83.875 79.9167 83.5208 80.75 83.0625C82.0417 82.2708 82.9792 81.375 83.5625 80.375C84.1875 79.3333 84.5 78.0417 84.5 76.5V12H83.5625L53.3125 87.5625H50.1875L21.375 10.4375H20.5625V63.375C20.5625 68.5 20.875 72.3958 21.5 75.0625C22.1667 77.7292 23.1667 79.6458 24.5 80.8125C25.4167 81.6875 27.3125 82.5208 30.1875 83.3125C33.0625 84.1042 34.9375 84.5208 35.8125 84.5625V89H0V84.5625C1.875 84.3958 3.83333 84.0833 5.875 83.625C7.95833 83.1667 9.5625 82.4792 10.6875 81.5625C12.1458 80.3958 13.1458 78.6042 13.6875 76.1875C14.2292 73.7708 14.5 69.7292 14.5 64.0625V18.6875C14.5 16.0625 14.1875 13.9167 13.5625 12.25C12.9375 10.5833 12.0417 9.22917 10.875 8.1875C9.58333 7.0625 8 6.22917 6.125 5.6875C4.25 5.14583 2.39583 4.83333 0.5625 4.75V0.3125H30.8125L56.1875 66.8125L77.875 11.1875C78.6667 9.14583 79.3333 7.02083 79.875 4.8125C80.4583 2.5625 80.7708 1.0625 80.8125 0.3125H109.75V4.75C108.583 4.79167 107.083 4.97917 105.25 5.3125C103.458 5.64583 102.146 5.95833 101.312 6.25C99.8958 6.75 98.9375 7.58333 98.4375 8.75C97.9375 9.91667 97.6875 11.1875 97.6875 12.5625V76.5C97.6875 77.9583 97.9375 79.1875 98.4375 80.1875C98.9375 81.1875 99.8958 82.0625 101.312 82.8125C102.062 83.2292 103.396 83.625 105.312 84C107.229 84.3333 108.75 84.5208 109.875 84.5625V89Z" fill="black"/>
<path d="M208.812 0.3125L207.875 4.4375C207.667 4.4375 206.875 4.52083 205.5 4.6875C204.125 4.8125 202.771 5.02083 201.438 5.3125C199.771 5.6875 198.146 6.20833 196.562 6.875C195.021 7.5 193.562 8.41667 192.188 9.625C186.729 14.5 180.854 19.75 174.562 25.375C168.271 30.9583 162.375 35.9792 156.875 40.4375C160.583 46.2292 164.146 51.9583 167.562 57.625C171.021 63.2917 174.354 68.875 177.562 74.375C178.729 76.375 180.021 78.1458 181.438 79.6875C182.896 81.2292 184.292 82.375 185.625 83.125C186.542 83.6667 187.833 84.0833 189.5 84.375C191.167 84.6667 192.521 84.8333 193.562 84.875L192.5 89H169.938C166.604 81.7917 162.938 74.6875 158.938 67.6875C154.938 60.6875 150.562 53.75 145.812 46.875H142.375L135.438 76.8125C135.354 77.1458 135.292 77.5 135.25 77.875C135.208 78.2083 135.188 78.5625 135.188 78.9375C135.188 79.9375 135.333 80.75 135.625 81.375C135.917 82 136.583 82.5833 137.625 83.125C138.167 83.4167 139.354 83.7708 141.188 84.1875C143.062 84.6042 144.479 84.8333 145.438 84.875L144.5 89H107.688L108.625 84.875C109.667 84.7917 111.104 84.6667 112.938 84.5C114.771 84.3333 116.104 84.0833 116.938 83.75C118.438 83.1667 119.562 82.3542 120.312 81.3125C121.104 80.2292 121.646 78.9583 121.938 77.5L136.875 12.875C136.958 12.5 137.021 12.125 137.062 11.75C137.104 11.375 137.125 11 137.125 10.625C137.125 9.70833 136.938 8.91667 136.562 8.25C136.188 7.58333 135.583 7.04167 134.75 6.625C134 6.20833 132.854 5.79167 131.312 5.375C129.812 4.91667 128.438 4.60417 127.188 4.4375L128.125 0.3125H164.938L164 4.4375C162.833 4.47917 161.333 4.66667 159.5 5C157.667 5.33333 156.292 5.64583 155.375 5.9375C153.833 6.4375 152.688 7.29167 151.938 8.5C151.188 9.66667 150.646 10.9167 150.312 12.25L143.062 43.8125H144.312C150.271 39.6042 156.146 35 161.938 30C167.729 25 172.458 20.625 176.125 16.875C178.375 14.5833 180.083 12.6667 181.25 11.125C182.458 9.54167 183.062 8.25 183.062 7.25C183.062 6.5 182.333 5.875 180.875 5.375C179.458 4.875 177.375 4.5625 174.625 4.4375L175.562 0.3125H208.812Z" fill="black"/>
<path d="M280.125 4.75C279.417 4.79167 278.292 5.08333 276.75 5.625C275.208 6.125 274.104 6.625 273.438 7.125C271.812 8.125 270.708 8.89583 270.125 9.4375C269.542 9.97917 268.417 11.3958 266.75 13.6875C263.5 18.2708 260.5 22.9167 257.75 27.625C255 32.3333 251.562 38.3125 247.438 45.5625C245.896 48.2292 244.875 50.375 244.375 52C243.875 53.625 243.625 55.9792 243.625 59.0625V76C243.625 77.5 243.917 78.8125 244.5 79.9375C245.125 81.0208 246.167 81.8958 247.625 82.5625C248.5 82.8958 250.062 83.3125 252.312 83.8125C254.562 84.2708 256.375 84.5208 257.75 84.5625V89H216.25V84.5625C217.417 84.4792 219.167 84.3333 221.5 84.125C223.833 83.875 225.458 83.5625 226.375 83.1875C227.875 82.5625 228.896 81.7083 229.438 80.625C230.021 79.5417 230.312 78.2083 230.312 76.625V55.0625C230.312 54.3958 229.896 53.1875 229.062 51.4375C228.271 49.6458 227.312 47.6667 226.188 45.5C223.688 40.6667 220.917 35.4375 217.875 29.8125C214.833 24.1875 212.188 19.375 209.938 15.375C208.562 13 207.333 11.2083 206.25 10C205.208 8.79167 204 7.72917 202.625 6.8125C201.625 6.1875 200.417 5.70833 199 5.375C197.625 5.04167 196.375 4.83333 195.25 4.75V0.3125H233.062V4.75C228.812 4.83333 225.812 5.125 224.062 5.625C222.312 6.125 221.438 6.83333 221.438 7.75C221.438 8 221.562 8.4375 221.812 9.0625C222.062 9.6875 222.417 10.4792 222.875 11.4375C223.417 12.5208 224.062 13.7708 224.812 15.1875C225.562 16.5625 226.271 17.8958 226.938 19.1875C228.896 22.8958 230.896 26.6042 232.938 30.3125C234.979 33.9792 237.646 38.7708 240.938 44.6875C247.479 34.1458 252.458 25.9375 255.875 20.0625C259.333 14.1458 261.062 10.6042 261.062 9.4375C261.062 8.47917 260.708 7.70833 260 7.125C259.292 6.54167 258.354 6.08333 257.188 5.75C255.979 5.41667 254.667 5.20833 253.25 5.125C251.833 5 250.521 4.875 249.312 4.75V0.3125H280.125V4.75Z" fill="black"/>
<path d="M351.409 129.266C353.253 131.453 354.675 134 355.675 136.906C356.706 139.781 357.222 143.078 357.222 146.797C357.222 150.453 356.613 153.797 355.394 156.828C354.175 159.828 352.566 162.391 350.566 164.516C348.472 166.672 346.144 168.328 343.581 169.484C341.019 170.641 338.3 171.219 335.425 171.219C332.644 171.219 330.363 170.906 328.581 170.281C326.8 169.656 325.347 168.922 324.222 168.078H323.847V181.953C323.847 183.078 324.066 184.016 324.503 184.766C324.941 185.516 325.613 186.062 326.519 186.406C327.269 186.688 328.331 186.953 329.706 187.203C331.113 187.484 332.269 187.641 333.175 187.672V190.812H307.347V187.672C308.316 187.609 309.253 187.531 310.159 187.438C311.066 187.344 311.878 187.188 312.597 186.969C313.534 186.656 314.191 186.109 314.566 185.328C314.941 184.547 315.128 183.625 315.128 182.562V133.391C315.128 132.453 314.894 131.547 314.425 130.672C313.956 129.797 313.347 129.094 312.597 128.562C312.034 128.188 311.253 127.906 310.253 127.719C309.253 127.5 308.284 127.359 307.347 127.297V124.25L323.097 123.219L323.753 123.781V128.984L324.128 129.078C325.753 127.203 327.769 125.641 330.175 124.391C332.581 123.141 334.972 122.516 337.347 122.516C340.222 122.516 342.847 123.125 345.222 124.344C347.628 125.562 349.691 127.203 351.409 129.266ZM343.769 162.5C345.019 160.562 345.941 158.312 346.534 155.75C347.128 153.188 347.425 150.328 347.425 147.172C347.425 144.859 347.175 142.5 346.675 140.094C346.175 137.688 345.394 135.594 344.331 133.812C343.269 132 341.878 130.531 340.159 129.406C338.441 128.281 336.378 127.719 333.972 127.719C331.659 127.719 329.691 128.234 328.066 129.266C326.441 130.266 325.034 131.469 323.847 132.875V160.203C324.128 161.047 324.581 161.922 325.206 162.828C325.863 163.734 326.581 164.516 327.363 165.172C328.331 165.953 329.378 166.594 330.503 167.094C331.628 167.562 333.003 167.797 334.628 167.797C336.378 167.797 338.066 167.344 339.691 166.438C341.316 165.5 342.675 164.188 343.769 162.5Z" fill="black"/>
<path d="M308.303 169.156L293.256 170.188L292.553 169.531V163.672H292.272C291.522 164.453 290.678 165.297 289.741 166.203C288.803 167.078 287.725 167.875 286.506 168.594C285.1 169.438 283.741 170.078 282.428 170.516C281.116 170.953 279.256 171.172 276.85 171.172C272.756 171.172 269.631 169.844 267.475 167.188C265.35 164.5 264.288 160.609 264.288 155.516V133.391C264.288 132.266 264.069 131.328 263.631 130.578C263.225 129.797 262.616 129.125 261.803 128.562C261.241 128.188 260.538 127.922 259.694 127.766C258.85 127.578 257.959 127.453 257.022 127.391V124.344L272.444 123.219L273.147 123.875V155.984C273.147 159.328 273.897 161.844 275.397 163.531C276.897 165.219 278.694 166.062 280.788 166.062C282.506 166.062 284.038 165.797 285.381 165.266C286.725 164.734 287.85 164.109 288.756 163.391C289.6 162.734 290.334 162.047 290.959 161.328C291.616 160.578 292.116 159.891 292.459 159.266V133.062C292.459 132.031 292.241 131.125 291.803 130.344C291.366 129.531 290.756 128.844 289.975 128.281C289.413 127.906 288.569 127.688 287.444 127.625C286.35 127.531 285.116 127.453 283.741 127.391V124.344L300.522 123.219L301.225 123.875V160.578C301.225 161.641 301.444 162.547 301.881 163.297C302.319 164.047 302.928 164.688 303.709 165.219C304.272 165.562 304.944 165.797 305.725 165.922C306.506 166.016 307.366 166.078 308.303 166.109V169.156Z" fill="black"/>
<path d="M256.853 146.422C256.853 149.672 256.337 152.875 255.306 156.031C254.275 159.156 252.806 161.812 250.9 164C248.744 166.5 246.244 168.359 243.4 169.578C240.556 170.797 237.369 171.406 233.838 171.406C230.9 171.406 228.103 170.859 225.447 169.766C222.791 168.641 220.431 167.016 218.369 164.891C216.338 162.797 214.713 160.25 213.494 157.25C212.306 154.219 211.713 150.828 211.713 147.078C211.713 139.859 213.806 133.953 217.994 129.359C222.213 124.766 227.728 122.469 234.541 122.469C241.009 122.469 246.337 124.656 250.525 129.031C254.744 133.375 256.853 139.172 256.853 146.422ZM247.15 146.516C247.15 144.172 246.916 141.703 246.447 139.109C245.978 136.484 245.275 134.266 244.337 132.453C243.337 130.516 242.025 128.969 240.4 127.812C238.775 126.625 236.791 126.031 234.447 126.031C232.041 126.031 229.978 126.625 228.259 127.812C226.572 129 225.197 130.625 224.134 132.688C223.134 134.594 222.431 136.766 222.025 139.203C221.619 141.641 221.416 144 221.416 146.281C221.416 149.281 221.65 152.062 222.119 154.625C222.619 157.156 223.4 159.422 224.463 161.422C225.525 163.422 226.853 165 228.447 166.156C230.072 167.281 232.072 167.844 234.447 167.844C238.353 167.844 241.447 165.953 243.728 162.172C246.009 158.391 247.15 153.172 247.15 146.516Z" fill="black"/>
<path d="M212.622 129.734C212.622 131.328 212.231 132.75 211.45 134C210.669 135.219 209.466 135.828 207.841 135.828C206.091 135.828 204.747 135.375 203.809 134.469C202.903 133.562 202.45 132.562 202.45 131.469C202.45 130.781 202.497 130.156 202.591 129.594C202.716 129.031 202.825 128.469 202.919 127.906C201.45 127.906 199.731 128.5 197.762 129.688C195.794 130.875 194.122 132.562 192.747 134.75V161.656C192.747 162.75 192.95 163.641 193.356 164.328C193.794 165.016 194.466 165.531 195.372 165.875C196.153 166.188 197.153 166.422 198.372 166.578C199.622 166.734 200.7 166.844 201.606 166.906V170H177.231V166.906C177.95 166.844 178.684 166.781 179.434 166.719C180.216 166.656 180.887 166.531 181.45 166.344C182.325 166.062 182.966 165.578 183.372 164.891C183.809 164.172 184.028 163.25 184.028 162.125V133.578C184.028 132.609 183.794 131.656 183.325 130.719C182.887 129.781 182.262 129.031 181.45 128.469C180.856 128.094 180.153 127.828 179.341 127.672C178.528 127.484 177.653 127.359 176.716 127.297V124.25L192.091 123.219L192.747 123.875V130.391H192.981C194.919 127.859 197.075 125.938 199.45 124.625C201.825 123.312 203.997 122.656 205.966 122.656C207.934 122.656 209.528 123.297 210.747 124.578C211.997 125.859 212.622 127.578 212.622 129.734Z" fill="black"/>
<path d="M177.953 143.422C177.203 143.516 176.188 143.672 174.906 143.891C173.656 144.078 172.641 144.359 171.859 144.734C170.922 145.203 170.25 145.875 169.844 146.75C169.469 147.594 169.281 148.594 169.281 149.75V154.906C169.281 158.656 169.297 161.188 169.328 162.5C169.391 163.812 169.453 164.891 169.516 165.734C165.359 167.609 161.219 169.047 157.094 170.047C152.969 171.047 148.922 171.547 144.953 171.547C140.703 171.547 136.609 170.75 132.672 169.156C128.734 167.562 125.297 165.297 122.359 162.359C119.391 159.391 117.031 155.781 115.281 151.531C113.531 147.281 112.656 142.531 112.656 137.281C112.656 132.219 113.484 127.531 115.141 123.219C116.828 118.875 119.203 115.109 122.266 111.922C125.234 108.797 128.766 106.375 132.859 104.656C136.984 102.906 141.391 102.031 146.078 102.031C149.828 102.031 153.094 102.484 155.875 103.391C158.656 104.297 161.109 105.391 163.234 106.672L165.156 103.484H168.906L169.328 126.734H165.484C164.828 124.172 164.016 121.656 163.047 119.188C162.078 116.688 160.828 114.453 159.297 112.484C157.766 110.516 155.891 108.953 153.672 107.797C151.484 106.609 148.859 106.016 145.797 106.016C142.453 106.016 139.469 106.703 136.844 108.078C134.219 109.422 131.938 111.438 130 114.125C128.094 116.719 126.625 119.953 125.594 123.828C124.562 127.703 124.047 132.031 124.047 136.812C124.047 141.031 124.547 145.016 125.547 148.766C126.578 152.484 128.062 155.703 130 158.422C131.938 161.203 134.359 163.391 137.266 164.984C140.172 166.578 143.469 167.375 147.156 167.375C149.906 167.375 152.406 166.953 154.656 166.109C156.938 165.266 158.547 164.375 159.484 163.438C159.734 161.812 159.859 160.172 159.859 158.516C159.891 156.859 159.906 155.453 159.906 154.297V150.641C159.906 149.328 159.719 148.172 159.344 147.172C159 146.141 158.266 145.391 157.141 144.922C156.109 144.453 154.703 144.109 152.922 143.891C151.172 143.641 149.797 143.484 148.797 143.422V140H177.953V143.422Z" fill="black"/>
</svg>
