<svg width="656" height="156" viewBox="0 0 656 156" fill="none" xmlns="http://www.w3.org/2000/svg">
<path d="M416.177 101V96.73H427.671C430.571 96.73 432.773 96.1571 434.277 95.0112C435.799 93.8475 436.56 92.1556 436.56 89.9355V89.8818C436.56 88.3779 436.211 87.1247 435.513 86.1221C434.814 85.1195 433.767 84.3675 432.371 83.8662C430.992 83.3649 429.273 83.1143 427.214 83.1143H416.177V78.9517H425.845C428.709 78.9517 430.894 78.3966 432.397 77.2866C433.919 76.1766 434.68 74.5742 434.68 72.4795V72.4258C434.68 70.5101 434.045 69.0509 432.773 68.0483C431.502 67.0278 429.694 66.5176 427.349 66.5176H416.177V62.2476H428.45C430.67 62.2476 432.612 62.6504 434.277 63.4561C435.942 64.2617 437.24 65.3896 438.171 66.8398C439.102 68.29 439.568 69.9819 439.568 71.9155V71.9692C439.568 73.312 439.264 74.5921 438.655 75.8096C438.046 77.027 437.214 78.0565 436.157 78.8979C435.101 79.7215 433.901 80.2318 432.559 80.4287V80.5361C434.421 80.751 436.023 81.2881 437.366 82.1475C438.708 83.0068 439.738 84.1169 440.454 85.4775C441.17 86.8203 441.528 88.3511 441.528 90.0698V90.1235C441.528 92.3973 441 94.3488 439.944 95.978C438.905 97.5894 437.41 98.8337 435.459 99.7109C433.507 100.57 431.153 101 428.396 101H416.177ZM413.76 101V62.2476H418.594V101H413.76ZM455.815 101.537C453.774 101.537 452.029 101.116 450.579 100.275C449.146 99.4334 448.045 98.2428 447.275 96.7031C446.523 95.1455 446.147 93.3104 446.147 91.1978V73.0703H450.82V90.3652C450.82 92.639 451.348 94.3846 452.405 95.6021C453.479 96.8016 455.09 97.4014 457.239 97.4014C458.349 97.4014 459.342 97.2134 460.22 96.8374C461.115 96.4614 461.885 95.9333 462.529 95.2529C463.174 94.5547 463.666 93.7222 464.006 92.7554C464.347 91.7707 464.517 90.6875 464.517 89.5059V73.0703H469.189V101H464.517V97.0254H464.409C463.908 97.8848 463.254 98.6546 462.449 99.335C461.661 100.015 460.712 100.552 459.602 100.946C458.492 101.34 457.23 101.537 455.815 101.537ZM485.195 101.537C483.011 101.537 481.122 101.188 479.529 100.49C477.935 99.7915 476.673 98.8158 475.742 97.5625C474.829 96.3092 474.274 94.8501 474.077 93.1851L474.05 92.9434H478.723L478.777 93.2119C479.063 94.6084 479.735 95.7005 480.791 96.4883C481.847 97.2581 483.324 97.6431 485.222 97.6431C486.493 97.6431 487.576 97.4819 488.472 97.1597C489.367 96.8195 490.056 96.3451 490.54 95.7363C491.023 95.1097 491.265 94.3757 491.265 93.5342V93.5073C491.265 92.5047 490.96 91.6991 490.352 91.0903C489.743 90.4816 488.642 89.9803 487.048 89.5864L482.617 88.5122C480.863 88.0825 479.403 87.5275 478.24 86.8472C477.094 86.1489 476.235 85.2985 475.662 84.2959C475.089 83.2933 474.802 82.1206 474.802 80.7778V80.751C474.802 79.1396 475.232 77.7163 476.091 76.481C476.969 75.2456 478.177 74.2788 479.717 73.5806C481.274 72.8823 483.056 72.5332 485.061 72.5332C487.102 72.5332 488.875 72.9002 490.378 73.6343C491.9 74.3504 493.091 75.3351 493.95 76.5884C494.827 77.8237 495.32 79.2202 495.427 80.7778L495.454 81.127H490.996L490.969 80.939C490.79 79.5783 490.19 78.4862 489.17 77.6626C488.167 76.839 486.798 76.4272 485.061 76.4272C483.933 76.4272 482.957 76.5973 482.134 76.9375C481.31 77.2777 480.675 77.7611 480.227 78.3877C479.797 78.9964 479.583 79.7126 479.583 80.5361V80.563C479.583 81.1896 479.726 81.7625 480.012 82.2817C480.317 82.783 480.791 83.2217 481.436 83.5977C482.08 83.9736 482.913 84.2869 483.933 84.5376L488.364 85.6118C491.193 86.2922 493.18 87.2321 494.326 88.4316C495.472 89.6133 496.045 91.1978 496.045 93.1851V93.2119C496.045 94.8411 495.57 96.2824 494.622 97.5356C493.691 98.7889 492.402 99.7736 490.754 100.49C489.125 101.188 487.272 101.537 485.195 101.537ZM501.201 101V73.0703H505.874V101H501.201ZM503.538 68.3438C502.732 68.3438 502.043 68.0573 501.47 67.4844C500.897 66.9115 500.61 66.2222 500.61 65.4165C500.61 64.5929 500.897 63.9036 501.47 63.3486C502.043 62.7757 502.732 62.4893 503.538 62.4893C504.361 62.4893 505.05 62.7757 505.605 63.3486C506.178 63.9036 506.465 64.5929 506.465 65.4165C506.465 66.2222 506.178 66.9115 505.605 67.4844C505.05 68.0573 504.361 68.3438 503.538 68.3438ZM512.239 101V73.0703H516.912V77.0449H517.019C517.771 75.738 518.863 74.6637 520.295 73.8223C521.728 72.9629 523.5 72.5332 525.613 72.5332C528.674 72.5332 531.047 73.4642 532.729 75.3262C534.43 77.1702 535.281 79.6857 535.281 82.8726V101H530.608V83.7051C530.608 81.4313 530.071 79.6947 528.997 78.4951C527.94 77.2777 526.338 76.6689 524.189 76.6689C522.721 76.6689 521.441 77.0002 520.349 77.6626C519.257 78.3071 518.407 79.2202 517.798 80.4019C517.207 81.5835 516.912 82.971 516.912 84.5645V101H512.239ZM552.737 101.537C550.069 101.537 547.769 100.946 545.835 99.7646C543.919 98.583 542.442 96.918 541.404 94.7695C540.383 92.6032 539.873 90.0609 539.873 87.1426V87.1157C539.873 84.2332 540.392 81.6999 541.431 79.5156C542.469 77.3135 543.928 75.6037 545.808 74.3862C547.688 73.1509 549.899 72.5332 552.441 72.5332C554.984 72.5332 557.168 73.124 558.994 74.3057C560.838 75.4694 562.253 77.1076 563.237 79.2202C564.222 81.3328 564.714 83.7856 564.714 86.5786V88.2974H542.209V84.645H562.405L560.042 88.0288V86.2295C560.042 84.0632 559.71 82.2728 559.048 80.8584C558.403 79.444 557.508 78.3966 556.362 77.7163C555.216 77.0181 553.901 76.6689 552.415 76.6689C550.929 76.6689 549.595 77.036 548.413 77.77C547.231 78.4862 546.3 79.5604 545.62 80.9927C544.94 82.4071 544.6 84.1527 544.6 86.2295V88.0288C544.6 89.9982 544.931 91.6812 545.593 93.0776C546.274 94.4741 547.231 95.5483 548.467 96.3003C549.702 97.0343 551.161 97.4014 552.844 97.4014C554.026 97.4014 555.082 97.2223 556.013 96.8643C556.944 96.5062 557.723 96.0138 558.35 95.3872C558.976 94.7606 559.424 94.0444 559.692 93.2388L559.773 92.9971H564.365L564.312 93.2656C564.079 94.4115 563.631 95.4857 562.969 96.4883C562.324 97.4909 561.492 98.3771 560.471 99.147C559.451 99.8989 558.287 100.49 556.98 100.919C555.673 101.331 554.259 101.537 552.737 101.537ZM579.351 101.537C577.166 101.537 575.278 101.188 573.684 100.49C572.091 99.7915 570.828 98.8158 569.897 97.5625C568.984 96.3092 568.429 94.8501 568.232 93.1851L568.206 92.9434H572.878L572.932 93.2119C573.219 94.6084 573.89 95.7005 574.946 96.4883C576.003 97.2581 577.48 97.6431 579.377 97.6431C580.649 97.6431 581.732 97.4819 582.627 97.1597C583.522 96.8195 584.211 96.3451 584.695 95.7363C585.178 95.1097 585.42 94.3757 585.42 93.5342V93.5073C585.42 92.5047 585.116 91.6991 584.507 91.0903C583.898 90.4816 582.797 89.9803 581.204 89.5864L576.772 88.5122C575.018 88.0825 573.559 87.5275 572.395 86.8472C571.249 86.1489 570.39 85.2985 569.817 84.2959C569.244 83.2933 568.958 82.1206 568.958 80.7778V80.751C568.958 79.1396 569.387 77.7163 570.247 76.481C571.124 75.2456 572.332 74.2788 573.872 73.5806C575.43 72.8823 577.211 72.5332 579.216 72.5332C581.257 72.5332 583.03 72.9002 584.534 73.6343C586.056 74.3504 587.246 75.3351 588.105 76.5884C588.983 77.8237 589.475 79.2202 589.583 80.7778L589.609 81.127H585.151L585.125 80.939C584.945 79.5783 584.346 78.4862 583.325 77.6626C582.323 76.839 580.953 76.4272 579.216 76.4272C578.088 76.4272 577.113 76.5973 576.289 76.9375C575.465 77.2777 574.83 77.7611 574.382 78.3877C573.953 78.9964 573.738 79.7126 573.738 80.5361V80.563C573.738 81.1896 573.881 81.7625 574.167 82.2817C574.472 82.783 574.946 83.2217 575.591 83.5977C576.235 83.9736 577.068 84.2869 578.088 84.5376L582.52 85.6118C585.348 86.2922 587.336 87.2321 588.481 88.4316C589.627 89.6133 590.2 91.1978 590.2 93.1851V93.2119C590.2 94.8411 589.726 96.2824 588.777 97.5356C587.846 98.7889 586.557 99.7736 584.91 100.49C583.28 101.188 581.427 101.537 579.351 101.537ZM604.971 101.537C602.786 101.537 600.898 101.188 599.304 100.49C597.711 99.7915 596.449 98.8158 595.518 97.5625C594.604 96.3092 594.049 94.8501 593.853 93.1851L593.826 92.9434H598.499L598.552 93.2119C598.839 94.6084 599.51 95.7005 600.566 96.4883C601.623 97.2581 603.1 97.6431 604.998 97.6431C606.269 97.6431 607.352 97.4819 608.247 97.1597C609.142 96.8195 609.832 96.3451 610.315 95.7363C610.798 95.1097 611.04 94.3757 611.04 93.5342V93.5073C611.04 92.5047 610.736 91.6991 610.127 91.0903C609.518 90.4816 608.417 89.9803 606.824 89.5864L602.393 88.5122C600.638 88.0825 599.179 87.5275 598.015 86.8472C596.869 86.1489 596.01 85.2985 595.437 84.2959C594.864 83.2933 594.578 82.1206 594.578 80.7778V80.751C594.578 79.1396 595.007 77.7163 595.867 76.481C596.744 75.2456 597.952 74.2788 599.492 73.5806C601.05 72.8823 602.831 72.5332 604.836 72.5332C606.877 72.5332 608.65 72.9002 610.154 73.6343C611.676 74.3504 612.866 75.3351 613.726 76.5884C614.603 77.8237 615.095 79.2202 615.203 80.7778L615.229 81.127H610.771L610.745 80.939C610.566 79.5783 609.966 78.4862 608.945 77.6626C607.943 76.839 606.573 76.4272 604.836 76.4272C603.708 76.4272 602.733 76.5973 601.909 76.9375C601.086 77.2777 600.45 77.7611 600.002 78.3877C599.573 78.9964 599.358 79.7126 599.358 80.5361V80.563C599.358 81.1896 599.501 81.7625 599.788 82.2817C600.092 82.783 600.566 83.2217 601.211 83.5977C601.855 83.9736 602.688 84.2869 603.708 84.5376L608.14 85.6118C610.968 86.2922 612.956 87.2321 614.102 88.4316C615.247 89.6133 615.82 91.1978 615.82 93.1851V93.2119C615.82 94.8411 615.346 96.2824 614.397 97.5356C613.466 98.7889 612.177 99.7736 610.53 100.49C608.901 101.188 607.048 101.537 604.971 101.537Z" fill="black"/>
<path d="M429.954 146.645C426.373 146.645 423.249 145.821 420.581 144.174C417.931 142.527 415.881 140.208 414.431 137.218C412.981 134.21 412.256 130.674 412.256 126.61V126.583C412.256 122.519 412.981 118.992 414.431 116.002C415.881 113.013 417.931 110.703 420.581 109.074C423.231 107.427 426.355 106.603 429.954 106.603C432.639 106.603 435.083 107.113 437.285 108.134C439.487 109.154 441.322 110.578 442.791 112.404C444.277 114.23 445.261 116.369 445.745 118.822L445.798 119.091H440.911L440.723 118.5C440.221 116.924 439.469 115.591 438.467 114.499C437.482 113.389 436.274 112.538 434.841 111.947C433.409 111.356 431.78 111.061 429.954 111.061C427.375 111.061 425.129 111.706 423.213 112.995C421.315 114.266 419.838 116.065 418.782 118.393C417.743 120.702 417.224 123.432 417.224 126.583V126.61C417.224 129.743 417.743 132.483 418.782 134.828C419.838 137.156 421.324 138.964 423.24 140.253C425.155 141.542 427.393 142.187 429.954 142.187C431.762 142.187 433.373 141.891 434.788 141.3C436.22 140.709 437.446 139.841 438.467 138.695C439.487 137.532 440.275 136.099 440.83 134.398L440.911 134.157H445.798L445.745 134.425C445.261 136.896 444.285 139.053 442.817 140.897C441.349 142.724 439.514 144.138 437.312 145.141C435.11 146.143 432.657 146.645 429.954 146.645ZM462.368 146.537C459.79 146.537 457.525 145.946 455.574 144.765C453.64 143.583 452.127 141.909 451.035 139.743C449.961 137.558 449.424 134.989 449.424 132.035V131.981C449.424 129.009 449.961 126.449 451.035 124.301C452.127 122.134 453.64 120.469 455.574 119.306C457.525 118.124 459.781 117.533 462.341 117.533C464.919 117.533 467.175 118.124 469.109 119.306C471.06 120.469 472.573 122.134 473.647 124.301C474.74 126.449 475.286 129.009 475.286 131.981V132.035C475.286 135.007 474.74 137.576 473.647 139.743C472.573 141.909 471.069 143.583 469.136 144.765C467.202 145.946 464.946 146.537 462.368 146.537ZM462.395 142.401C464.042 142.401 465.465 141.999 466.665 141.193C467.882 140.369 468.822 139.188 469.485 137.648C470.165 136.09 470.505 134.219 470.505 132.035V131.981C470.505 129.797 470.165 127.935 469.485 126.396C468.822 124.856 467.874 123.683 466.638 122.877C465.421 122.072 463.988 121.669 462.341 121.669C460.73 121.669 459.307 122.081 458.071 122.904C456.854 123.71 455.905 124.883 455.225 126.422C454.544 127.944 454.204 129.797 454.204 131.981V132.035C454.204 134.219 454.544 136.09 455.225 137.648C455.905 139.188 456.854 140.369 458.071 141.193C459.307 141.999 460.748 142.401 462.395 142.401ZM480.012 146V118.07H484.685V122.045H484.792C485.544 120.738 486.637 119.664 488.069 118.822C489.501 117.963 491.274 117.533 493.386 117.533C496.448 117.533 498.82 118.464 500.503 120.326C502.204 122.17 503.054 124.686 503.054 127.873V146H498.381V128.705C498.381 126.431 497.844 124.695 496.77 123.495C495.714 122.278 494.111 121.669 491.963 121.669C490.495 121.669 489.215 122 488.123 122.663C487.03 123.307 486.18 124.22 485.571 125.402C484.98 126.583 484.685 127.971 484.685 129.564V146H480.012ZM518.926 146.537C516.742 146.537 514.853 146.188 513.259 145.49C511.666 144.792 510.404 143.816 509.473 142.562C508.56 141.309 508.005 139.85 507.808 138.185L507.781 137.943H512.454L512.507 138.212C512.794 139.608 513.465 140.701 514.521 141.488C515.578 142.258 517.055 142.643 518.953 142.643C520.224 142.643 521.307 142.482 522.202 142.16C523.097 141.819 523.787 141.345 524.27 140.736C524.753 140.11 524.995 139.376 524.995 138.534V138.507C524.995 137.505 524.691 136.699 524.082 136.09C523.473 135.482 522.372 134.98 520.779 134.586L516.348 133.512C514.593 133.083 513.134 132.528 511.97 131.847C510.824 131.149 509.965 130.299 509.392 129.296C508.819 128.293 508.533 127.121 508.533 125.778V125.751C508.533 124.14 508.962 122.716 509.822 121.481C510.699 120.246 511.908 119.279 513.447 118.581C515.005 117.882 516.786 117.533 518.792 117.533C520.833 117.533 522.605 117.9 524.109 118.634C525.631 119.35 526.821 120.335 527.681 121.588C528.558 122.824 529.05 124.22 529.158 125.778L529.185 126.127H524.727L524.7 125.939C524.521 124.578 523.921 123.486 522.9 122.663C521.898 121.839 520.528 121.427 518.792 121.427C517.664 121.427 516.688 121.597 515.864 121.938C515.041 122.278 514.405 122.761 513.958 123.388C513.528 123.996 513.313 124.713 513.313 125.536V125.563C513.313 126.19 513.456 126.763 513.743 127.282C514.047 127.783 514.521 128.222 515.166 128.598C515.811 128.974 516.643 129.287 517.664 129.538L522.095 130.612C524.924 131.292 526.911 132.232 528.057 133.432C529.202 134.613 529.775 136.198 529.775 138.185V138.212C529.775 139.841 529.301 141.282 528.352 142.536C527.421 143.789 526.132 144.774 524.485 145.49C522.856 146.188 521.003 146.537 518.926 146.537ZM544.17 146.537C542.129 146.537 540.383 146.116 538.933 145.275C537.501 144.433 536.4 143.243 535.63 141.703C534.878 140.146 534.502 138.31 534.502 136.198V118.07H539.175V135.365C539.175 137.639 539.703 139.385 540.759 140.602C541.833 141.802 543.445 142.401 545.593 142.401C546.703 142.401 547.697 142.213 548.574 141.837C549.469 141.461 550.239 140.933 550.884 140.253C551.528 139.555 552.021 138.722 552.361 137.755C552.701 136.771 552.871 135.688 552.871 134.506V118.07H557.544V146H552.871V142.025H552.764C552.262 142.885 551.609 143.655 550.803 144.335C550.015 145.015 549.067 145.552 547.957 145.946C546.847 146.34 545.584 146.537 544.17 146.537ZM563.882 146V107.248H568.555V146H563.882ZM583.943 146.537C581.383 146.537 579.467 145.928 578.196 144.711C576.925 143.493 576.289 141.551 576.289 138.883V121.938H572.207V118.07H576.289V110.524H581.123V118.07H586.44V121.938H581.123V138.856C581.123 140.342 581.445 141.354 582.09 141.891C582.734 142.41 583.683 142.67 584.937 142.67C585.223 142.67 585.492 142.661 585.742 142.643C586.011 142.607 586.243 142.58 586.44 142.562V146.349C586.154 146.385 585.778 146.421 585.312 146.457C584.865 146.51 584.408 146.537 583.943 146.537ZM591.758 146V118.07H596.431V146H591.758ZM594.094 113.344C593.289 113.344 592.599 113.057 592.026 112.484C591.453 111.911 591.167 111.222 591.167 110.417C591.167 109.593 591.453 108.904 592.026 108.349C592.599 107.776 593.289 107.489 594.094 107.489C594.918 107.489 595.607 107.776 596.162 108.349C596.735 108.904 597.021 109.593 597.021 110.417C597.021 111.222 596.735 111.911 596.162 112.484C595.607 113.057 594.918 113.344 594.094 113.344ZM602.795 146V118.07H607.468V122.045H607.576C608.328 120.738 609.42 119.664 610.852 118.822C612.284 117.963 614.057 117.533 616.169 117.533C619.231 117.533 621.603 118.464 623.286 120.326C624.987 122.17 625.837 124.686 625.837 127.873V146H621.165V128.705C621.165 126.431 620.627 124.695 619.553 123.495C618.497 122.278 616.895 121.669 614.746 121.669C613.278 121.669 611.998 122 610.906 122.663C609.814 123.307 608.963 124.22 608.354 125.402C607.764 126.583 607.468 127.971 607.468 129.564V146H602.795ZM643.616 155.937C641.324 155.937 639.319 155.605 637.6 154.943C635.899 154.298 634.521 153.412 633.464 152.284C632.426 151.174 631.755 149.93 631.45 148.551L631.396 148.31H636.096L636.204 148.551C636.651 149.554 637.511 150.342 638.782 150.915C640.071 151.505 641.664 151.801 643.562 151.801C646.015 151.801 647.913 151.165 649.255 149.894C650.598 148.641 651.27 146.931 651.27 144.765V141.193H651.162C650.607 142.231 649.891 143.126 649.014 143.878C648.136 144.63 647.125 145.221 645.979 145.651C644.851 146.063 643.616 146.269 642.273 146.269C639.928 146.269 637.86 145.678 636.069 144.496C634.297 143.297 632.909 141.623 631.907 139.474C630.922 137.308 630.43 134.774 630.43 131.874V131.847C630.43 128.947 630.931 126.431 631.934 124.301C632.954 122.152 634.36 120.487 636.15 119.306C637.94 118.124 640.017 117.533 642.38 117.533C643.705 117.533 644.923 117.757 646.033 118.205C647.143 118.652 648.127 119.27 648.987 120.058C649.864 120.845 650.589 121.758 651.162 122.797H651.27V118.07H655.942V145.221C655.942 147.388 655.441 149.267 654.438 150.861C653.436 152.472 652.013 153.716 650.168 154.594C648.324 155.489 646.14 155.937 643.616 155.937ZM643.293 142.133C644.887 142.133 646.274 141.712 647.456 140.871C648.656 140.011 649.587 138.812 650.249 137.272C650.929 135.732 651.27 133.933 651.27 131.874V131.847C651.27 129.788 650.929 127.998 650.249 126.476C649.587 124.954 648.656 123.773 647.456 122.931C646.257 122.09 644.869 121.669 643.293 121.669C641.646 121.669 640.214 122.09 638.997 122.931C637.779 123.755 636.839 124.927 636.177 126.449C635.532 127.971 635.21 129.77 635.21 131.847V131.874C635.21 133.987 635.532 135.813 636.177 137.353C636.839 138.874 637.779 140.056 638.997 140.897C640.214 141.721 641.646 142.133 643.293 142.133Z" fill="black"/>
<path d="M153 147H98.4317V139.645C100.404 139.576 102.928 139.334 106.003 138.92C109.137 138.505 111.283 137.918 112.444 137.159C114.242 135.846 115.548 134.362 116.36 132.704C117.23 130.977 117.666 128.837 117.666 126.281V19.3721H116.36L74.2372 144.617H69.8857L29.7645 16.7822H28.6331V104.526C28.6331 113.021 29.0683 119.479 29.9386 123.899C30.8669 128.319 32.2594 131.495 34.116 133.429C35.3925 134.879 38.0324 136.261 42.0358 137.573C46.0392 138.885 48.6502 139.576 49.8686 139.645V147H0V139.645C2.61092 139.369 5.33788 138.851 8.18089 138.091C11.0819 137.331 13.3157 136.192 14.8823 134.672C16.913 132.739 18.3055 129.769 19.0597 125.763C19.814 121.758 20.1911 115.058 20.1911 105.666V30.4567C20.1911 26.1057 19.756 22.549 18.8857 19.7865C18.0154 17.024 16.7679 14.7794 15.1433 13.0529C13.3447 11.1882 11.1399 9.80691 8.52901 8.90909C5.91809 8.01128 3.33618 7.49331 0.783276 7.35518V0H42.9061L78.2406 110.224L108.44 18.0254C109.543 14.6413 110.471 11.1191 111.225 7.45877C112.038 3.72939 112.473 1.24313 112.531 0H152.826V7.35518C151.201 7.42424 149.113 7.73502 146.56 8.28753C144.065 8.84003 142.237 9.358 141.077 9.84144C139.104 10.6702 137.77 12.0514 137.073 13.9852C136.377 15.919 136.029 18.0254 136.029 20.3044V126.281C136.029 128.698 136.377 130.736 137.073 132.393C137.77 134.051 139.104 135.501 141.077 136.744C142.121 137.435 143.978 138.091 146.647 138.712C149.316 139.265 151.433 139.576 153 139.645V147Z" fill="#897093"/>
<path d="M292 0L290.693 6.83721C290.402 6.83721 289.299 6.97533 287.381 7.25159C285.464 7.45877 283.576 7.80409 281.717 8.28753C279.393 8.90909 277.127 9.77238 274.92 10.8774C272.77 11.9133 270.737 13.4327 268.82 15.4355C261.209 23.5159 253.017 32.2178 244.245 41.5412C235.472 50.7956 227.252 59.1177 219.583 66.5074C224.753 76.1071 229.721 85.6032 234.485 94.9958C239.307 104.388 243.954 113.643 248.428 122.759C250.054 126.074 251.855 129.009 253.831 131.564C255.864 134.12 257.81 136.019 259.669 137.262C260.947 138.16 262.748 138.851 265.072 139.334C267.396 139.817 269.284 140.094 270.737 140.163L269.255 147H237.796C233.148 135.052 228.036 123.277 222.459 111.674C216.881 100.072 210.781 88.5729 204.158 77.1776H199.365L189.692 126.799C189.576 127.352 189.489 127.939 189.431 128.56C189.373 129.113 189.344 129.7 189.344 130.321C189.344 131.979 189.547 133.326 189.954 134.362C190.36 135.397 191.29 136.364 192.742 137.262C193.498 137.746 195.153 138.333 197.71 139.023C200.324 139.714 202.299 140.094 203.635 140.163L202.328 147H151L152.307 140.163C153.76 140.025 155.764 139.817 158.32 139.541C160.876 139.265 162.735 138.851 163.897 138.298C165.989 137.331 167.557 135.984 168.603 134.258C169.707 132.462 170.462 130.356 170.869 127.939L191.697 20.8224C191.813 20.2008 191.9 19.5793 191.958 18.9577C192.016 18.3362 192.045 17.7146 192.045 17.093C192.045 15.5736 191.784 14.2615 191.261 13.1564C190.738 12.0514 189.896 11.1536 188.734 10.463C187.688 9.77238 186.09 9.08175 183.941 8.39112C181.849 7.63143 179.932 7.11346 178.189 6.83721L179.496 0H230.824L229.517 6.83721C227.891 6.90627 225.799 7.21705 223.243 7.76956C220.687 8.32206 218.769 8.84003 217.491 9.32347C215.342 10.1522 213.744 11.568 212.698 13.5708C211.653 15.5046 210.897 17.5765 210.433 19.7865L200.324 72.1015H202.067C210.375 65.1261 218.566 57.4947 226.642 49.2072C234.717 40.9197 241.311 33.6681 246.423 27.4524C249.561 23.654 251.943 20.4771 253.569 17.9218C255.254 15.2974 256.096 13.1564 256.096 11.4989C256.096 10.2558 255.08 9.21987 253.046 8.39112C251.071 7.56237 248.166 7.0444 244.332 6.83721L245.639 0H292Z" fill="#897093"/>
<path d="M410 7.35518C409.015 7.42424 407.451 7.90768 405.308 8.8055C403.164 9.63425 401.629 10.463 400.703 11.2918C398.443 12.9493 396.908 14.2269 396.097 15.1247C395.286 16.0226 393.722 18.3707 391.405 22.1691C386.887 29.766 382.716 37.4665 378.892 45.2706C375.069 53.0747 370.29 62.9852 364.555 75.0021C362.412 79.4221 360.993 82.9789 360.298 85.6723C359.602 88.3657 359.255 92.2678 359.255 97.3784V125.452C359.255 127.939 359.66 130.114 360.471 131.979C361.34 133.774 362.788 135.225 364.816 136.33C366.032 136.882 368.205 137.573 371.333 138.402C374.461 139.161 376.981 139.576 378.892 139.645V147H321.196V139.645C322.818 139.507 325.251 139.265 328.495 138.92C331.739 138.505 333.998 137.987 335.272 137.366C337.358 136.33 338.777 134.914 339.53 133.118C340.341 131.323 340.747 129.113 340.747 126.488V90.7484C340.747 89.6434 340.167 87.6406 339.009 84.74C337.908 81.7703 336.576 78.4898 335.012 74.8985C331.536 66.8872 327.684 58.2199 323.455 48.8964C319.226 39.5729 315.548 31.5962 312.42 24.9662C310.508 21.0296 308.799 18.0599 307.293 16.0571C305.845 14.0543 304.165 12.2932 302.253 10.7738C300.863 9.73784 299.183 8.94362 297.214 8.39112C295.302 7.83862 293.564 7.49331 292 7.35518V0H344.57V7.35518C338.661 7.49331 334.49 7.97674 332.057 8.8055C329.624 9.63425 328.408 10.8083 328.408 12.3277C328.408 12.7421 328.582 13.4672 328.929 14.5032C329.277 15.5391 329.769 16.8513 330.406 18.4397C331.16 20.2354 332.057 22.3073 333.1 24.6554C334.143 26.9345 335.128 29.1445 336.054 31.2854C338.777 37.432 341.558 43.5786 344.396 49.7252C347.235 55.8027 350.942 63.7449 355.518 73.5518C364.613 56.0789 371.536 42.4736 376.286 32.7357C381.094 22.9288 383.498 17.0585 383.498 15.1247C383.498 13.5363 383.005 12.2586 382.021 11.2918C381.036 10.3249 379.732 9.56519 378.11 9.01268C376.431 8.46018 374.606 8.11487 372.636 7.97674C370.667 7.76956 368.842 7.56237 367.162 7.35518V0H410V7.35518Z" fill="#897093"/>
<path d="M298.124 8.53424C299.069 8.39652 299.153 7.23234 298.217 7.03687C297.015 6.78571 295.693 6.56862 294.281 6.39215C291.284 6.01741 288.004 5.8408 284.81 5.88227C281.616 5.92373 278.637 6.18162 276.207 6.62681C275.686 6.72231 275.195 6.82561 274.735 6.93604C273.349 7.26907 273.604 8.65409 275.022 8.79484C275.419 8.8342 275.812 8.71239 276.166 8.52937C276.9 8.15021 277.991 7.82227 279.37 7.56966C281.131 7.247 283.29 7.0601 285.605 7.03004C287.919 6.99999 290.297 7.12799 292.469 7.39958C294.53 7.65728 296.328 8.03453 297.683 8.49234C297.824 8.54031 297.975 8.55582 298.124 8.53424Z" fill="#897093"/>
<path d="M295.591 7.27703C296.566 6.97406 296.458 5.74119 295.438 5.69737C294.281 5.64763 293.026 5.64348 291.701 5.68633C288.682 5.78393 285.414 6.12146 282.266 6.66084C279.118 7.20022 276.215 7.91997 273.885 8.73887C273.48 8.88137 273.094 9.02588 272.73 9.17188C271.317 9.73849 271.804 11.1376 273.324 11.0496C273.749 11.025 274.143 10.8308 274.489 10.5828C275.139 10.1175 276.122 9.64825 277.379 9.20641C279.024 8.62825 281.074 8.1201 283.296 7.73929C285.519 7.35849 287.826 7.12018 289.957 7.05128C291.969 6.98624 293.749 7.07458 295.119 7.3065C295.276 7.33321 295.438 7.32451 295.591 7.27703Z" fill="#897093"/>
<path d="M289 0H293V6H289V0Z" fill="#897093"/>
<path d="M169 135.6C169 136.125 168.599 136.645 167.82 137.131C167.041 137.616 165.899 138.057 164.46 138.428C163.021 138.8 161.312 139.095 159.432 139.296C157.551 139.497 155.535 139.6 153.5 139.6C151.465 139.6 149.449 139.497 147.568 139.296C145.688 139.095 143.979 138.8 142.54 138.428C141.101 138.057 139.959 137.616 139.18 137.131C138.401 136.645 138 136.125 138 135.6H138.747C138.747 136.1 139.129 136.595 139.87 137.057C140.612 137.519 141.698 137.939 143.068 138.292C144.438 138.646 146.064 138.926 147.854 139.117C149.644 139.309 151.563 139.407 153.5 139.407C155.437 139.407 157.356 139.309 159.146 139.117C160.936 138.926 162.562 138.646 163.932 138.292C165.302 137.939 166.388 137.519 167.13 137.057C167.871 136.595 168.253 136.1 168.253 135.6H169Z" fill="#897093"/>
<path d="M146 139.5H164V142.5H146V139.5Z" fill="#897093"/>
<path d="M145.905 140.269L163.84 138.742L164.095 141.731L146.16 143.258L145.905 140.269Z" fill="#897093"/>
</svg>
